<?xml version="1.0" encoding="utf-8"?>
<!-- Generator: Adobe Illustrator 16.0.3, SVG Export Plug-In . SVG Version: 6.00 Build 0)  -->
<!DOCTYPE svg PUBLIC "-//W3C//DTD SVG 1.1//EN" "http://www.w3.org/Graphics/SVG/1.1/DTD/svg11.dtd">
<svg version="1.1" xmlns="http://www.w3.org/2000/svg" xmlns:xlink="http://www.w3.org/1999/xlink" x="0px" y="0px" width="560px"
	 height="560px" viewBox="0 0 560 560" enable-background="new 0 0 560 560" xml:space="preserve">
<g id="Layer_1">
	<g>
		<g>
			<path fill="#3E4F89" d="M-622.234,331.198c-15.954,40.956-76.743,23.477-142.744,12.292c-20.157-3.419-32.787-1.893-32.787-1.893
				c0,21.324,0-111.175,0-111.175c9.125-42.916,73.832-25.417,125.732-13.753c28.118,6.323,49.799,2.854,49.799,2.854
				C-622.234,199.372-622.234,331.198-622.234,331.198z"/>
		</g>
		<text transform="matrix(1 0 0 1 -772.6934 309.46)" fill="#FFFFFF" font-family="'SegoeUI'" font-size="86.6253">JFD</text>
		<path fill="none" stroke="#FFFFFF" stroke-width="2.2796" stroke-miterlimit="10" d="M-771.926,318.964"/>
		<path fill="none" stroke="#FFFFFF" stroke-width="2.2796" stroke-miterlimit="10" d="M-645.791,318.964"/>
	</g>
</g>
<g id="Layer_2">
	<g>
		<g>
			<path fill="#3E4F89" d="M560.879,443.852c-51.06,131.071-245.604,75.132-456.828,39.336c-64.509-10.94-104.93-6.055-104.93-6.055
				c0,68.242,0-355.796,0-355.796C28.325-16.007,235.409,39.992,401.506,77.322c89.987,20.236,159.373,9.132,159.373,9.132
				C560.879,21.964,560.879,443.852,560.879,443.852z"/>
		</g>
		<g>
			<path fill="#FFFFFF" d="M154.489,304.703c0,23.013-4.873,40.904-14.619,53.673c-9.747,12.771-22.788,19.154-39.121,19.154
				c-7.58,0-13.808-1.083-18.681-3.249v-22.471c4.873,3.52,11.189,5.279,18.951,5.279c20.485,0,30.729-17.371,30.729-52.116V180.167
				h22.741V304.703z"/>
			<path fill="#FFFFFF" d="M302.309,200.743h-75.805v67.141h70.119v20.44h-70.119v85.957h-22.741V180.167h98.546V200.743z"/>
			<path fill="#FFFFFF" d="M339.128,374.281V180.167h53.604c68.404,0,102.606,31.54,102.606,94.621
				c0,29.962-9.498,54.034-28.494,72.217c-18.997,18.186-44.423,27.276-76.278,27.276H339.128z M361.869,200.743v152.963h28.968
				c25.449,0,45.257-6.813,59.426-20.44c14.167-13.626,21.252-32.938,21.252-57.937c0-49.724-26.442-74.586-79.324-74.586H361.869z"
				/>
		</g>
		<path fill="none" stroke="#FFFFFF" stroke-width="2.2796" stroke-miterlimit="10" d="M81.816,404.696"/>
		<path fill="none" stroke="#FFFFFF" stroke-width="2.2796" stroke-miterlimit="10" d="M485.488,404.696"/>
	</g>
</g>
<g id="Layer_3">
	<rect x="580" display="none" fill="#3E4F89" width="560" height="560"/>
	<g>
		<g>
			<path fill="#FFFFFF" d="M981.506,77.322c-166.097-37.33-373.181-93.33-402.385,44.015c0,0,0,304.122,0,355.796
				c0,0,40.421-4.886,104.93,6.055c211.225,35.796,405.769,91.735,456.828-39.336c0,0,0-307.857,0-357.397
				C1140.879,86.455,1071.493,97.559,981.506,77.322z M734.489,304.703c0,23.013-4.873,40.904-14.619,53.673
				c-9.747,12.771-22.788,19.154-39.121,19.154c-7.58,0-13.808-1.083-18.681-3.249v-22.471c4.873,3.52,11.189,5.279,18.951,5.279
				c20.485,0,30.729-17.371,30.729-52.116V180.167h22.741V304.703z M882.309,200.743h-75.805v67.141h70.119v20.44h-70.119v85.957
				h-22.741V180.167h98.546V200.743z M1046.845,347.005c-18.997,18.186-44.423,27.276-76.278,27.276h-51.438V180.167h53.604
				c68.404,0,102.606,31.54,102.606,94.621C1075.339,304.75,1065.841,328.821,1046.845,347.005z"/>
		</g>
		<g>
			<path fill="#FFFFFF" d="M972.19,201H942v153h28.837c25.449,0,45.257-6.961,59.426-20.588
				c14.167-13.625,21.252-32.883,21.252-57.881C1051.515,225.808,1025.072,201,972.19,201z"/>
		</g>
	</g>
</g>
</svg>
