<?xml version="1.0" encoding="utf-8"?>
<!-- Generator: Adobe Illustrator 16.0.3, SVG Export Plug-In . SVG Version: 6.00 Build 0)  -->
<!DOCTYPE svg PUBLIC "-//W3C//DTD SVG 1.1//EN" "http://www.w3.org/Graphics/SVG/1.1/DTD/svg11.dtd">
<svg version="1.1" xmlns="http://www.w3.org/2000/svg" xmlns:xlink="http://www.w3.org/1999/xlink" x="0px" y="0px" width="600px"
	 height="600px" viewBox="0 0 600 600" enable-background="new 0 0 600 600" xml:space="preserve">
<g id="Layer_2" display="none">
	
		<text transform="matrix(1 0 0 1 223.1113 -52.4033)" display="inline" fill="#FFFFFF" font-family="'MyriadPro-Regular'" font-size="60">white </text>
	
		<text transform="matrix(1 0 0 1 -408.8887 -48)" display="inline" fill="#FFFFFF" font-family="'MyriadPro-Regular'" font-size="60">regular </text>
	
		<text transform="matrix(1 0 0 1 -1346.8291 -52.4033)" display="inline" fill="#FFFFFF" font-family="'MyriadPro-Regular'" font-size="60">old </text>
	<rect x="-1" y="1" display="inline" fill="#3E4F89" width="600" height="600"/>
</g>
<g id="Layer_1">
	<g>
		<g>
			<path fill="#3E4F89" d="M-1222.234,351.198c-15.954,40.956-76.743,23.477-142.744,12.292
				c-20.157-3.419-32.787-1.893-32.787-1.893c0,21.324,0-111.175,0-111.175c9.125-42.916,73.832-25.417,125.732-13.753
				c28.118,6.323,49.799,2.854,49.799,2.854C-1222.234,219.372-1222.234,351.198-1222.234,351.198z"/>
		</g>
		<text transform="matrix(1 0 0 1 -1372.6934 329.46)" fill="#FFFFFF" font-family="'SegoeUI'" font-size="86.6253">JFD</text>
		<path fill="none" stroke="#FFFFFF" stroke-width="2.2796" stroke-miterlimit="10" d="M-1371.926,338.964"/>
		<path fill="none" stroke="#FFFFFF" stroke-width="2.2796" stroke-miterlimit="10" d="M-1245.791,338.964"/>
	</g>
	<g>
		<g>
			<path fill="#3E4F89" d="M-83.256,443.355c-44.672,114.678-214.881,65.734-399.684,34.418
				c-56.441-9.572-91.805-5.299-91.805-5.299c0,59.707,0-311.289,0-311.289c25.551-120.164,206.73-71.17,352.051-38.51
				c78.73,17.705,139.438,7.99,139.438,7.99C-83.256,74.242-83.256,443.355-83.256,443.355z"/>
		</g>
		<text transform="matrix(1 0 0 1 -504.541 382.4893)" fill="#FFFFFF" font-family="'SegoeUI'" font-size="242.5509">JFD</text>
		<path fill="none" stroke="#FFFFFF" stroke-width="2.2796" stroke-miterlimit="10" d="M-502.393,409.1"/>
		<path fill="none" stroke="#FFFFFF" stroke-width="2.2796" stroke-miterlimit="10" d="M-149.215,409.1"/>
	</g>
	<g>
		<g>
			<path fill="#FFFFFF" d="M406.307,123.676c-145.32-32.66-326.5-81.654-352.051,38.51c0,0,0,266.078,0,311.289
				c0,0,35.363-4.273,91.805,5.299c184.803,31.316,355.012,80.26,399.684-34.418c0,0,0-269.346,0-312.689
				C545.744,131.666,485.037,141.381,406.307,123.676z M190.189,322.614c0,20.134-4.264,35.787-12.791,46.959
				c-8.527,11.174-19.938,16.759-34.227,16.759c-6.633,0-12.081-0.948-16.344-2.843v-19.66c4.263,3.079,9.789,4.619,16.58,4.619
				c17.922,0,26.885-15.198,26.885-45.597V213.656h19.896V322.614z M319.518,231.658h-66.322v58.743h61.349v17.883h-61.349v75.205
				h-19.896V213.656h86.219V231.658z M463.474,359.625c-16.621,15.911-38.866,23.864-66.737,23.864h-45.004V213.656h46.899
				c59.848,0,89.772,27.595,89.772,82.785C488.404,322.655,480.094,343.716,463.474,359.625z"/>
		</g>
		<g>
			<path fill="#FFFFFF" d="M398.158,232H372v133h24.974c22.266,0,39.596-5.717,51.992-17.639
				c12.395-11.922,18.594-28.526,18.594-50.397C467.56,253.46,444.425,232,398.158,232z"/>
		</g>
	</g>
</g>
</svg>
